<svg width="57" height="58" viewBox="0 0 57 58" fill="none" xmlns="http://www.w3.org/2000/svg">
<path d="M23.6924 26.6224C23.2509 26.9377 22.6831 27.127 21.9893 27.127H18.0784V23.0268H21.737C22.1154 23.0268 22.4308 23.0268 22.7462 23.0899C23.0616 23.153 23.3139 23.2792 23.5662 23.4053C23.8186 23.5945 24.0078 23.7838 24.134 24.0361C24.2601 24.2884 24.3232 24.6669 24.3232 25.0454C24.3232 25.7392 24.134 26.307 23.6924 26.6224Z" fill="black"/>
<path d="M23.2509 34.4442C22.9355 34.5072 22.557 34.5703 22.1785 34.5703H18.0784V29.7132H22.2416C23.0616 29.7132 23.7555 29.9025 24.2601 30.2809C24.7648 30.7225 25.0171 31.3533 25.0171 32.2364C25.0171 32.6779 24.8909 33.0564 24.7648 33.3718C24.5755 33.6872 24.3863 33.8764 24.134 34.0657C23.8816 34.2549 23.5663 34.3811 23.2509 34.4442Z" fill="black"/>
<path d="M36.3713 27.1901C37.1913 27.1901 37.8852 27.4424 38.3268 27.8839C38.7683 28.3255 39.0837 28.9563 39.2099 29.9025H33.5327C33.5327 29.6934 33.576 29.4844 33.6268 29.2395C33.6373 29.1888 33.6481 29.1365 33.6589 29.0824C33.722 28.767 33.8481 28.4516 34.1005 28.1993C34.3528 27.947 34.6051 27.6947 34.9836 27.5055C35.362 27.3162 35.8036 27.1901 36.3713 27.1901Z" fill="black"/>
<path fill-rule="evenodd" clip-rule="evenodd" d="M28.4357 0.530029C12.7451 0.530029 0.0253906 13.2498 0.0253906 28.9404C0.0253906 44.6309 12.7451 57.3507 28.4357 57.3507C44.1263 57.3507 56.846 44.6309 56.846 28.9404C56.846 13.2498 44.1263 0.530029 28.4357 0.530029ZM24.7648 20.3144C24.0709 20.1252 23.3139 20.0621 22.4939 20.0621H14.2306V37.472H22.6831C23.4401 37.472 24.197 37.3458 24.954 37.1566C25.7109 36.9673 26.4048 36.6519 26.9725 36.2734C27.5402 35.895 28.0449 35.3273 28.3603 34.6965C28.6757 34.0657 28.8649 33.3087 28.8649 32.4256C28.8649 31.3533 28.5495 30.4071 28.0449 29.6501C27.5402 28.8932 26.7202 28.3255 25.6479 28.0101C26.4048 27.6316 27.0356 27.127 27.4141 26.5593C27.8556 25.9916 28.0449 25.2346 28.0449 24.3515C28.0449 23.5946 27.9187 22.9007 27.6664 22.333C27.4141 21.7653 27.0356 21.3237 26.531 21.0083C26.0263 20.6929 25.4586 20.4406 24.7648 20.3144ZM36.6236 35.2642C35.6144 35.2642 34.8574 35.0119 34.3528 34.5072C33.8481 34.0026 33.4697 33.0564 33.4697 32.0471H42.6161C42.6792 31.0379 42.6161 30.1548 42.49 29.2717C42.2377 28.3886 41.8592 27.5685 41.3545 26.8747C40.8499 26.1177 40.2191 25.6131 39.3991 25.1715C38.5791 24.73 37.6329 24.5407 36.5605 24.5407C35.5513 24.5407 34.7312 24.73 33.9112 25.0454C33.1543 25.3608 32.4604 25.8654 31.8927 26.4331C31.325 27.0639 30.8834 27.7578 30.568 28.5778C30.2526 29.3978 30.1265 30.2809 30.1265 31.2271C30.1265 32.2364 30.2526 33.1195 30.568 33.9395C30.8203 34.7595 31.2619 35.4534 31.8296 36.0211C32.3973 36.6519 33.0281 37.0935 33.8481 37.4089C34.6682 37.7243 35.5513 37.9135 36.5605 37.9135C38.0114 37.9135 39.2099 37.535 40.2191 36.9042C41.2284 36.2104 41.9853 35.138 42.49 33.6241H39.3991C39.2729 34.0026 38.9575 34.3811 38.4529 34.7595C37.9483 35.0749 37.3175 35.2642 36.6236 35.2642ZM39.8407 21.2606H32.7758V22.9638H39.8407V21.2606Z" fill="black"/>
</svg>
