<svg width="58" height="58" viewBox="0 0 58 58" fill="none" xmlns="http://www.w3.org/2000/svg">
<path fill-rule="evenodd" clip-rule="evenodd" d="M0.31543 28.9404C0.31543 13.2498 13.0352 0.530029 28.7258 0.530029C44.4163 0.530029 57.1361 13.2498 57.1361 28.9404C57.1361 44.6309 44.4163 57.3507 28.7258 57.3507C13.0352 57.3507 0.31543 44.6309 0.31543 28.9404ZM14.5206 29.2378C14.5206 21.4185 20.8629 15.0761 28.6823 15.0761C36.5017 15.0761 42.844 21.4185 42.9309 29.2378C42.9309 35.4933 38.9343 40.7931 33.287 42.7045C32.592 42.7914 32.3313 42.357 32.3313 42.0095V38.0998C32.3313 36.7965 31.897 35.9277 31.3757 35.4933C34.5034 35.1458 37.8049 34.0163 37.8049 28.5428C37.8049 26.9789 37.1967 25.6757 36.328 24.72C36.3348 24.6927 36.3443 24.6584 36.3557 24.6175C36.4887 24.1377 36.8746 22.7453 36.1541 20.9841C36.1541 20.9841 34.9378 20.6366 32.2444 22.4611C31.115 22.2004 29.8986 22.0267 28.6823 22.0267C27.466 22.0267 26.2497 22.1135 25.1202 22.4611C22.4268 20.6366 21.2105 20.9841 21.2105 20.9841C20.4426 22.8611 20.9315 24.3192 21.0317 24.6179L21.0367 24.6331C20.081 25.6757 19.5597 26.892 19.5597 28.4559C19.5597 33.9295 22.8613 35.1458 25.989 35.4933C25.6415 35.8409 25.2071 36.449 25.1202 37.4047C24.3382 37.7522 22.34 38.3604 21.0367 36.1884C21.0367 36.1884 20.2548 34.7983 18.8647 34.7114C18.8647 34.7114 17.4746 34.7114 18.7778 35.5802C18.7778 35.5802 19.7335 36.0146 20.3416 37.6654C20.3416 37.6654 21.2105 40.4456 25.1202 39.5768V42.0095C25.1202 42.357 24.8595 42.7914 24.1645 42.7045C18.604 40.7931 14.5206 35.4933 14.5206 29.2378Z" fill="black"/>
</svg>
