<svg width="58" height="58" viewBox="0 0 58 58" fill="none" xmlns="http://www.w3.org/2000/svg">
<path fill-rule="evenodd" clip-rule="evenodd" d="M29.0158 57.3507C13.3252 57.3507 0.605469 44.6309 0.605469 28.9404C0.605469 13.2498 13.3252 0.530029 29.0158 0.530029C44.7064 0.530029 57.4261 13.2498 57.4261 28.9404C57.4261 44.6309 44.7064 57.3507 29.0158 57.3507ZM17.8293 21.3051C18.0068 21.4826 18.1843 21.8378 18.1843 22.1929V34.6224C18.3619 35.1551 18.1843 35.5103 17.8293 35.8654L14.8106 39.4167V39.9494H23.1562V39.4167L20.1376 35.8654C19.96 35.5103 19.7824 35.1551 19.7824 34.6224V23.791L27.2401 39.9494H27.9504L34.3427 23.791V36.7532C34.3427 37.1083 34.3427 37.2859 34.1652 37.4635L31.8568 39.7718V40.3045H43.0434V39.7718L40.9126 37.641C40.7351 37.4635 40.7351 37.1083 40.7351 36.9308V20.9499C40.5575 20.5948 40.7351 20.4173 40.9126 20.2397L43.221 18.1089V17.5762H35.4081L29.726 31.6038L23.3337 17.5762H15.1658V18.1089L17.8293 21.3051Z" fill="black"/>
</svg>
