<svg width="58" height="58" viewBox="0 0 58 58" fill="none" xmlns="http://www.w3.org/2000/svg">
<rect width="56.8206" height="56.8206" transform="translate(0.735352 0.530029)" fill="white"/>
<path fill-rule="evenodd" clip-rule="evenodd" d="M0.735352 28.9404C0.735352 13.2498 13.4551 0.530029 29.1457 0.530029C44.8363 0.530029 57.556 13.2498 57.556 28.9404C57.556 44.6309 44.8363 57.3507 29.1457 57.3507C13.4551 57.3507 0.735352 44.6309 0.735352 28.9404ZM15.2956 24.1461V43.1455H21.3328V24.1461H15.2956ZM14.9405 18.1089C14.9405 20.0621 16.361 21.4826 18.3142 21.4826C20.2674 21.4826 21.688 20.0621 21.688 18.1089C21.688 16.1557 20.2674 14.7352 18.3142 14.7352C16.5386 14.7352 14.9405 16.1557 14.9405 18.1089ZM37.3137 43.1455H42.9957V31.4263C42.9957 25.5666 39.4444 23.6134 36.0707 23.6134C33.0521 23.6134 30.9213 25.5666 30.3886 26.8096V24.1461H24.7066V43.1455H30.7437V33.0243C30.7437 30.3609 32.5194 28.9404 34.295 28.9404C36.0707 28.9404 37.3137 29.8282 37.3137 32.8468V43.1455Z" fill="black"/>
</svg>
